<?xml version="1.0" standalone="no"?>
<!DOCTYPE svg PUBLIC "-//W3C//DTD SVG 20010904//EN"
 "http://www.w3.org/TR/2001/REC-SVG-20010904/DTD/svg10.dtd">
<svg version="1.0" xmlns="http://www.w3.org/2000/svg"
 width="512.000000pt" height="512.000000pt" viewBox="0 0 512.000000 512.000000"
 preserveAspectRatio="xMidYMid meet">

<g transform="translate(0.000000,512.000000) scale(0.100000,-0.100000)"
fill="#000000" stroke="none">
<path d="M2352 4183 c-207 -207 -372 -420 -490 -634 l-31 -56 82 -7 c45 -3
198 -6 340 -6 l257 0 0 303 c0 167 3 359 7 425 4 90 3 122 -6 122 -6 0 -78
-66 -159 -147z"/>
<path d="M2647 3908 c-4 -232 -5 -423 -3 -425 2 -2 155 -7 341 -10 l338 -6
-43 81 c-59 115 -182 300 -278 419 -83 102 -328 363 -341 363 -4 0 -11 -190
-14 -422z"/>
<path d="M2195 4299 c-461 -99 -878 -387 -1130 -781 l-17 -28 315 0 316 0 51
95 c124 230 270 426 494 662 38 40 67 73 65 72 -2 0 -44 -9 -94 -20z"/>
<path d="M2951 4229 c216 -239 359 -439 473 -667 l46 -92 88 0 c49 0 192 -3
317 -7 l229 -6 -24 39 c-86 143 -258 336 -395 446 -150 120 -370 243 -533 297
-62 21 -249 71 -266 71 -4 0 25 -37 65 -81z"/>
<path d="M10 2938 c0 -156 -3 -442 -7 -635 l-6 -353 126 0 127 0 1 333 c1 182
4 385 8 451 l6 119 249 -447 c137 -246 254 -450 260 -454 6 -4 66 -8 133 -10
97 -3 124 -1 127 9 2 8 7 294 10 637 l5 622 -124 0 -125 0 0 -192 c0 -106 -3
-304 -7 -440 l-6 -247 -246 442 -246 442 -143 3 -142 3 0 -283z"/>
<path d="M1297 2580 c-4 -348 -6 -634 -5 -636 2 -1 217 -5 479 -9 l476 -8 7
107 c4 58 5 110 1 116 -4 6 -129 10 -351 10 l-344 0 0 165 0 165 310 0 310 0
0 110 0 110 -312 0 -311 0 6 98 c4 53 7 114 7 136 l0 38 333 -3 332 -4 3 113
3 112 -163 0 c-90 0 -301 3 -469 7 l-306 6 -6 -633z"/>
<path d="M4476 3200 c-123 -22 -215 -69 -282 -142 -94 -105 -117 -283 -53
-416 43 -87 152 -142 434 -216 90 -24 185 -54 211 -67 118 -58 105 -196 -24
-246 -35 -13 -75 -18 -157 -18 -98 0 -115 3 -160 26 -56 29 -91 73 -107 136
l-10 43 -124 0 -124 0 0 -27 c1 -46 19 -114 46 -168 71 -142 221 -222 439
-232 253 -13 449 75 521 232 32 68 42 180 24 256 -36 158 -118 211 -470 304
-207 54 -257 76 -277 122 -31 75 26 168 117 193 62 17 175 7 233 -20 54 -25
104 -78 113 -118 3 -15 7 -33 10 -39 2 -10 37 -13 130 -13 l127 0 -6 51 c-19
157 -142 291 -317 343 -66 20 -225 29 -294 16z"/>
<path d="M2380 3193 c0 -5 76 -291 168 -638 l169 -630 125 -3 126 -3 9 43 c5
24 52 244 103 490 52 246 97 444 101 440 3 -4 47 -223 98 -486 50 -264 93
-481 94 -482 1 -1 58 -3 127 -5 l124 -4 178 610 c97 336 179 620 183 633 l5
22 -134 0 -134 0 -41 -172 c-141 -590 -175 -727 -179 -724 -4 4 -171 881 -172
899 0 4 -64 6 -142 5 l-143 -3 -87 -420 c-47 -231 -90 -436 -94 -455 -6 -34
-7 -34 -15 -10 -4 14 -49 216 -100 450 -62 291 -96 429 -107 438 -17 13 -262
18 -262 5z"/>
<path d="M1040 1632 c0 -14 99 -152 165 -232 205 -244 484 -433 788 -535 98
-33 262 -74 296 -75 7 0 -28 44 -79 97 -197 205 -361 429 -475 646 l-57 107
-319 0 c-175 0 -319 -4 -319 -8z"/>
<path d="M1870 1564 c58 -108 146 -238 244 -363 83 -106 350 -390 359 -381 2
3 7 186 11 408 l6 402 -209 0 c-114 0 -263 3 -331 7 l-124 6 44 -79z"/>
<path d="M2618 1224 c-3 -225 -4 -410 -3 -412 1 -1 60 53 130 120 199 191 388
429 509 641 l27 47 -113 0 c-62 0 -210 3 -329 7 l-216 6 -5 -409z"/>
<path d="M3372 1513 c-118 -212 -267 -407 -469 -614 l-113 -116 62 10 c461 69
919 360 1187 755 l40 59 -166 6 c-92 4 -237 7 -323 7 l-158 0 -60 -107z"/>
</g>
</svg>
